<svg xmlns="http://www.w3.org/2000/svg" xmlns:xlink="http://www.w3.org/1999/xlink" width="500" zoomAndPan="magnify" viewBox="0 0 375 374.999991" height="500" preserveAspectRatio="xMidYMid meet" version="1.0"><defs><g/><clipPath id="1335dcd1c2"><path d="M 40.042969 153 L 334.792969 153 L 334.792969 239 L 40.042969 239 Z M 40.042969 153 " clip-rule="nonzero"/></clipPath><clipPath id="0b485d3eae"><path d="M 90 106.277344 L 285 106.277344 L 285 166 L 90 166 Z M 90 106.277344 " clip-rule="nonzero"/></clipPath></defs><rect x="-37.5" width="450" fill="#ffffff" y="-37.499999" height="449.999989" fill-opacity="1"/><rect x="-37.5" width="450" fill="#ffffff" y="-37.499999" height="449.999989" fill-opacity="1"/><path fill="#231f20" d="M 241.453125 177.632812 L 241.410156 177.660156 C 241.402344 177.660156 241.394531 177.667969 241.390625 177.667969 Z M 241.453125 177.632812 " fill-opacity="1" fill-rule="nonzero"/><g clip-path="url(#1335dcd1c2)"><path fill="#7e5e3f" d="M 318.082031 163.019531 C 312.066406 160.25 305.699219 158.066406 299.132812 156.507812 C 285.992188 153.378906 272.074219 152.804688 258.402344 154.710938 C 257.027344 154.894531 255.65625 155.113281 254.28125 155.351562 C 253.949219 155.410156 253.613281 155.46875 253.277344 155.527344 C 251.574219 155.859375 249.878906 156.1875 248.175781 156.589844 C 244.785156 157.382812 241.417969 158.320312 238.050781 159.457031 C 236.359375 160.03125 234.679688 160.640625 232.957031 161.347656 L 231.636719 161.902344 L 230.953125 162.207031 L 230.574219 162.378906 L 230.386719 162.476562 L 230.167969 162.585938 L 229.90625 162.722656 L 229.660156 162.855469 C 229.617188 162.882812 229.609375 162.882812 229.578125 162.890625 L 229.441406 162.957031 L 229.300781 163.019531 L 229.070312 163.128906 L 228.238281 163.5 C 227.089844 164.003906 225.832031 164.5 224.558594 164.964844 C 223.925781 165.203125 223.285156 165.429688 222.636719 165.65625 C 221.996094 165.886719 221.328125 166.085938 220.679688 166.296875 C 218.039062 167.109375 215.355469 167.859375 212.625 168.464844 C 211.265625 168.777344 209.890625 169.046875 208.519531 169.324219 L 206.449219 169.679688 C 205.757812 169.800781 205.066406 169.898438 204.367188 169.992188 C 201.59375 170.429688 198.800781 170.691406 196 170.902344 L 193.894531 171.023438 L 192.847656 171.082031 L 191.792969 171.105469 L 189.683594 171.15625 C 188.984375 171.179688 188.277344 171.140625 187.570312 171.148438 C 187.003906 171.148438 186.445312 171.132812 185.882812 171.128906 C 177.507812 170.96875 169.125 169.890625 160.832031 167.976562 C 158.523438 167.445312 156.226562 166.855469 153.933594 166.195312 L 151.851562 165.605469 L 149.785156 164.933594 C 148.402344 164.492188 147.011719 164.082031 145.652344 163.558594 L 136.578125 160.285156 C 130.050781 158.117188 123.359375 156.386719 116.5625 155.277344 C 116.152344 155.214844 115.746094 155.15625 115.339844 155.089844 C 108.941406 154.101562 102.46875 153.632812 96.035156 153.757812 C 94.113281 153.78125 92.199219 153.875 90.292969 154.011719 C 88.792969 154.121094 87.304688 154.265625 85.8125 154.421875 C 84.96875 154.515625 84.125 154.644531 83.277344 154.761719 C 82.433594 154.886719 81.589844 154.980469 80.761719 155.140625 C 79.085938 155.453125 77.414062 155.707031 75.761719 156.109375 C 74.941406 156.296875 74.109375 156.472656 73.289062 156.675781 C 72.464844 156.886719 71.652344 157.105469 70.835938 157.324219 C 70.019531 157.535156 69.214844 157.78125 68.414062 158.03125 C 67.605469 158.277344 66.804688 158.503906 66.011719 158.785156 L 63.632812 159.609375 C 62.847656 159.890625 62.066406 160.203125 61.289062 160.503906 C 60.503906 160.800781 59.734375 161.121094 58.96875 161.457031 C 58.203125 161.785156 57.433594 162.113281 56.683594 162.46875 C 53.664062 163.863281 50.722656 165.421875 47.929688 167.175781 C 45.144531 168.964844 42.421875 170.84375 40.042969 173.089844 C 43.15625 172.144531 46.257812 171.425781 49.371094 170.84375 C 52.46875 170.253906 55.570312 169.796875 58.65625 169.46875 C 64.824219 168.792969 70.945312 168.585938 76.976562 168.84375 C 78.484375 168.878906 79.988281 169.003906 81.480469 169.097656 C 81.859375 169.117188 82.230469 169.15625 82.601562 169.191406 L 83.722656 169.292969 C 84.464844 169.367188 85.207031 169.417969 85.949219 169.511719 L 88.167969 169.796875 C 88.882812 169.875 89.585938 169.960938 90.292969 170.078125 L 90.292969 190.226562 C 90.292969 218.277344 111.730469 238.71875 138.09375 238.71875 C 162.207031 238.71875 182.195312 221.609375 185.433594 197.21875 C 186.101562 197.234375 186.773438 197.234375 187.441406 197.25 C 188.320312 197.25 189.210938 197.269531 190.097656 197.242188 L 192.746094 197.15625 L 194.070312 197.109375 L 195.394531 197.023438 L 198.042969 196.84375 C 201.570312 196.492188 205.09375 196.078125 208.585938 195.421875 C 209.460938 195.261719 210.332031 195.109375 211.199219 194.914062 L 213.804688 194.351562 C 215.535156 193.929688 217.261719 193.53125 218.96875 193.023438 C 222.390625 192.039062 225.789062 190.933594 229.121094 189.585938 C 229.1875 189.558594 229.25 189.535156 229.316406 189.507812 L 229.316406 236.03125 L 254.289062 236.03125 L 254.289062 177.632812 C 254.328125 177.617188 254.363281 177.601562 254.40625 177.589844 C 257.097656 176.554688 259.855469 175.644531 262.652344 174.808594 C 264.039062 174.363281 265.460938 174.023438 266.871094 173.609375 L 269.003906 173.078125 L 270.074219 172.808594 L 271.148438 172.574219 L 273.304688 172.085938 L 275.472656 171.65625 C 276.917969 171.359375 278.375 171.132812 279.84375 170.878906 C 285.703125 169.925781 291.667969 169.410156 297.722656 169.265625 C 303.777344 169.117188 309.917969 169.378906 316.125 170.050781 C 322.339844 170.703125 328.589844 171.789062 334.976562 173.097656 C 329.78125 169.132812 324.09375 165.800781 318.082031 163.019531 Z M 138.011719 213.503906 C 126.019531 213.503906 115.347656 203.667969 115.347656 190.148438 L 115.347656 176.417969 C 119.691406 177.972656 123.945312 179.71875 128.125 181.671875 L 132.066406 183.589844 L 133.121094 184.101562 L 134.285156 184.652344 L 136.628906 185.746094 C 138.179688 186.503906 139.789062 187.140625 141.382812 187.8125 L 143.78125 188.792969 L 146.226562 189.6875 C 150.882812 191.398438 155.664062 192.839844 160.53125 193.988281 C 158.707031 205.433594 148.832031 213.503906 138.011719 213.503906 Z M 138.011719 213.503906 " fill-opacity="1" fill-rule="nonzero"/></g><g clip-path="url(#0b485d3eae)"><path fill="#808000" d="M 284.710938 106.28125 L 284.710938 130.945312 L 254.28125 130.945312 L 254.28125 149.480469 C 253.949219 149.539062 253.613281 149.597656 253.277344 149.652344 C 251.574219 149.988281 249.878906 150.316406 248.175781 150.714844 C 244.785156 151.507812 241.417969 152.449219 238.050781 153.582031 C 236.359375 154.160156 234.679688 154.769531 232.957031 155.476562 L 231.636719 156.027344 L 230.953125 156.332031 L 230.574219 156.507812 L 230.167969 156.710938 L 229.90625 156.851562 L 229.660156 156.980469 C 229.617188 157.011719 229.609375 157.011719 229.578125 157.019531 L 229.441406 157.082031 L 229.300781 157.148438 L 229.300781 130.945312 L 198.792969 130.945312 L 198.792969 106.28125 Z M 90.292969 148.164062 C 92.199219 148.023438 94.121094 147.929688 96.035156 147.90625 C 102.472656 147.785156 108.941406 148.25 115.339844 149.238281 L 115.339844 106.28125 L 90.292969 106.28125 Z M 160.832031 162.105469 C 169.125 164.019531 177.515625 165.09375 185.882812 165.253906 L 185.882812 106.28125 L 160.832031 106.28125 Z M 160.832031 162.105469 " fill-opacity="1" fill-rule="nonzero"/></g><path fill="#231f20" d="M 241.453125 177.632812 L 241.410156 177.660156 L 241.394531 177.675781 Z M 241.453125 177.632812 " fill-opacity="1" fill-rule="nonzero"/><g fill="#808000" fill-opacity="1"><g transform="translate(73.904464, 255.005666)"><g><path d="M 6.5 0.171875 C 4.8125 0.171875 3.554688 -0.226562 2.734375 -1.03125 C 1.921875 -1.832031 1.515625 -3.019531 1.515625 -4.59375 L 1.515625 -12.25 L 3.890625 -12.25 L 3.890625 -4.609375 C 3.890625 -3.710938 4.101562 -3.039062 4.53125 -2.59375 C 4.957031 -2.144531 5.613281 -1.921875 6.5 -1.921875 C 8.226562 -1.921875 9.09375 -2.816406 9.09375 -4.609375 L 9.09375 -12.25 L 11.46875 -12.25 L 11.46875 -4.59375 C 11.46875 -3.019531 11.054688 -1.832031 10.234375 -1.03125 C 9.421875 -0.226562 8.175781 0.171875 6.5 0.171875 Z M 6.5 0.171875 "/></g></g></g><g fill="#808000" fill-opacity="1"><g transform="translate(96.9457, 255.005666)"><g><path d="M 1.59375 0 L 1.59375 -12.25 L 6.515625 -12.25 C 7.773438 -12.25 8.726562 -11.957031 9.375 -11.375 C 10.019531 -10.789062 10.34375 -9.984375 10.34375 -8.953125 C 10.34375 -8.210938 10.15625 -7.601562 9.78125 -7.125 C 9.40625 -6.65625 8.84375 -6.296875 8.09375 -6.046875 L 8.09375 -5.859375 C 8.476562 -5.691406 8.785156 -5.441406 9.015625 -5.109375 C 9.253906 -4.785156 9.484375 -4.300781 9.703125 -3.65625 L 10.921875 0 L 8.4375 0 L 7.234375 -3.65625 C 7.109375 -4.03125 6.96875 -4.316406 6.8125 -4.515625 C 6.664062 -4.722656 6.472656 -4.875 6.234375 -4.96875 C 5.992188 -5.0625 5.6875 -5.109375 5.3125 -5.109375 L 4.015625 -5.109375 L 4.015625 0 Z M 6.21875 -7.015625 C 7.382812 -7.015625 7.96875 -7.5625 7.96875 -8.65625 C 7.96875 -9.769531 7.382812 -10.328125 6.21875 -10.328125 L 4.015625 -10.328125 L 4.015625 -7.015625 Z M 6.21875 -7.015625 "/></g></g></g><g fill="#808000" fill-opacity="1"><g transform="translate(118.453931, 255.005666)"><g><path d="M 1.59375 0 L 1.59375 -12.25 L 6.8125 -12.25 C 7.570312 -12.25 8.210938 -12.128906 8.734375 -11.890625 C 9.253906 -11.648438 9.648438 -11.3125 9.921875 -10.875 C 10.191406 -10.4375 10.328125 -9.921875 10.328125 -9.328125 C 10.328125 -8.785156 10.191406 -8.304688 9.921875 -7.890625 C 9.660156 -7.472656 9.285156 -7.140625 8.796875 -6.890625 L 8.796875 -6.71875 C 9.566406 -6.519531 10.160156 -6.15625 10.578125 -5.625 C 10.992188 -5.09375 11.203125 -4.441406 11.203125 -3.671875 C 11.203125 -2.492188 10.847656 -1.585938 10.140625 -0.953125 C 9.441406 -0.316406 8.394531 0 7 0 Z M 6.3125 -7.359375 C 7.445312 -7.359375 8.015625 -7.867188 8.015625 -8.890625 C 8.015625 -9.410156 7.875 -9.796875 7.59375 -10.046875 C 7.3125 -10.296875 6.882812 -10.421875 6.3125 -10.421875 L 4.015625 -10.421875 L 4.015625 -7.359375 Z M 6.765625 -1.921875 C 8.097656 -1.921875 8.765625 -2.523438 8.765625 -3.734375 C 8.765625 -4.953125 8.097656 -5.5625 6.765625 -5.5625 L 4.015625 -5.5625 L 4.015625 -1.921875 Z M 6.765625 -1.921875 "/></g></g></g><g fill="#808000" fill-opacity="1"><g transform="translate(140.489917, 255.005666)"><g><path d="M 11.75 0 L 9.203125 0 L 8.28125 -2.828125 L 3.59375 -2.828125 L 2.671875 0 L 0.1875 0 L 4.421875 -12.25 L 7.515625 -12.25 Z M 5.828125 -9.6875 L 4.25 -4.859375 L 7.609375 -4.859375 L 6.03125 -9.6875 Z M 5.828125 -9.6875 "/></g></g></g><g fill="#808000" fill-opacity="1"><g transform="translate(162.484018, 255.005666)"><g><path d="M 3.9375 0 L 1.59375 0 L 1.59375 -12.25 L 4.359375 -12.25 L 9.28125 -4.359375 L 9.5 -4.390625 L 9.5 -12.25 L 11.828125 -12.25 L 11.828125 0 L 9.34375 0 L 4.140625 -8.421875 L 3.9375 -8.390625 Z M 3.9375 0 "/></g></g></g><g fill="#808000" fill-opacity="1"><g transform="translate(185.969238, 255.005666)"><g/></g></g><g fill="#808000" fill-opacity="1"><g transform="translate(200.072135, 255.005666)"><g><path d="M 9.8125 -12.25 L 9.8125 -10.21875 L 6.28125 -10.21875 L 6.28125 0 L 3.875 0 L 3.875 -10.21875 L 0.328125 -10.21875 L 0.328125 -12.25 Z M 9.8125 -12.25 "/></g></g></g><g fill="#808000" fill-opacity="1"><g transform="translate(220.28192, 255.005666)"><g><path d="M 1.59375 0 L 1.59375 -12.25 L 6.515625 -12.25 C 7.773438 -12.25 8.726562 -11.957031 9.375 -11.375 C 10.019531 -10.789062 10.34375 -9.984375 10.34375 -8.953125 C 10.34375 -8.210938 10.15625 -7.601562 9.78125 -7.125 C 9.40625 -6.65625 8.84375 -6.296875 8.09375 -6.046875 L 8.09375 -5.859375 C 8.476562 -5.691406 8.785156 -5.441406 9.015625 -5.109375 C 9.253906 -4.785156 9.484375 -4.300781 9.703125 -3.65625 L 10.921875 0 L 8.4375 0 L 7.234375 -3.65625 C 7.109375 -4.03125 6.96875 -4.316406 6.8125 -4.515625 C 6.664062 -4.722656 6.472656 -4.875 6.234375 -4.96875 C 5.992188 -5.0625 5.6875 -5.109375 5.3125 -5.109375 L 4.015625 -5.109375 L 4.015625 0 Z M 6.21875 -7.015625 C 7.382812 -7.015625 7.96875 -7.5625 7.96875 -8.65625 C 7.96875 -9.769531 7.382812 -10.328125 6.21875 -10.328125 L 4.015625 -10.328125 L 4.015625 -7.015625 Z M 6.21875 -7.015625 "/></g></g></g><g fill="#808000" fill-opacity="1"><g transform="translate(241.79015, 255.005666)"><g><path d="M 6.671875 0.171875 C 5.554688 0.171875 4.566406 -0.0546875 3.703125 -0.515625 C 2.847656 -0.972656 2.175781 -1.671875 1.6875 -2.609375 C 1.207031 -3.546875 0.96875 -4.71875 0.96875 -6.125 C 0.96875 -7.519531 1.207031 -8.6875 1.6875 -9.625 C 2.175781 -10.570312 2.847656 -11.273438 3.703125 -11.734375 C 4.566406 -12.191406 5.554688 -12.421875 6.671875 -12.421875 C 7.796875 -12.421875 8.785156 -12.191406 9.640625 -11.734375 C 10.492188 -11.285156 11.160156 -10.585938 11.640625 -9.640625 C 12.128906 -8.691406 12.375 -7.519531 12.375 -6.125 C 12.375 -4.71875 12.128906 -3.539062 11.640625 -2.59375 C 11.160156 -1.65625 10.492188 -0.957031 9.640625 -0.5 C 8.785156 -0.0507812 7.796875 0.171875 6.671875 0.171875 Z M 6.671875 -1.921875 C 7.710938 -1.921875 8.503906 -2.253906 9.046875 -2.921875 C 9.597656 -3.585938 9.875 -4.65625 9.875 -6.125 C 9.875 -7.582031 9.597656 -8.644531 9.046875 -9.3125 C 8.503906 -9.988281 7.710938 -10.328125 6.671875 -10.328125 C 5.628906 -10.328125 4.832031 -9.988281 4.28125 -9.3125 C 3.726562 -8.644531 3.453125 -7.582031 3.453125 -6.125 C 3.453125 -4.65625 3.726562 -3.585938 4.28125 -2.921875 C 4.832031 -2.253906 5.628906 -1.921875 6.671875 -1.921875 Z M 6.671875 -1.921875 "/></g></g></g><g fill="#808000" fill-opacity="1"><g transform="translate(265.1916, 255.005666)"><g><path d="M 7.28125 0 L 4.359375 0 L 0.21875 -12.25 L 2.796875 -12.25 L 5.765625 -3.109375 L 5.96875 -3.109375 L 8.90625 -12.25 L 11.40625 -12.25 Z M 7.28125 0 "/></g></g></g><g fill="#808000" fill-opacity="1"><g transform="translate(286.875749, 255.005666)"><g><path d="M 4.015625 -5.375 L 4.015625 -2.03125 L 9.859375 -2.03125 L 9.859375 0 L 1.59375 0 L 1.59375 -12.25 L 9.71875 -12.25 L 9.71875 -10.21875 L 4.015625 -10.21875 L 4.015625 -7.359375 L 9 -7.359375 L 9 -5.375 Z M 4.015625 -5.375 "/></g></g></g><g fill="#808000" fill-opacity="1"><g transform="translate(307.470859, 255.005666)"><g/></g></g><g fill="#7e5e3f" fill-opacity="1"><g transform="translate(68.876081, 270.309676)"><g><path d="M 1.5625 0.0625 C 1.332031 0.0625 1.15625 0 1.03125 -0.125 C 0.90625 -0.25 0.84375 -0.414062 0.84375 -0.625 C 0.84375 -0.820312 0.90625 -0.984375 1.03125 -1.109375 C 1.15625 -1.242188 1.332031 -1.3125 1.5625 -1.3125 C 1.78125 -1.3125 1.953125 -1.25 2.078125 -1.125 C 2.203125 -1 2.265625 -0.832031 2.265625 -0.625 C 2.265625 -0.425781 2.203125 -0.257812 2.078125 -0.125 C 1.953125 0 1.78125 0.0625 1.5625 0.0625 Z M 1.5625 0.0625 "/></g></g></g><g fill="#7e5e3f" fill-opacity="1"><g transform="translate(71.990842, 270.309676)"><g><path d="M 1.5625 0.0625 C 1.332031 0.0625 1.15625 0 1.03125 -0.125 C 0.90625 -0.25 0.84375 -0.414062 0.84375 -0.625 C 0.84375 -0.820312 0.90625 -0.984375 1.03125 -1.109375 C 1.15625 -1.242188 1.332031 -1.3125 1.5625 -1.3125 C 1.78125 -1.3125 1.953125 -1.25 2.078125 -1.125 C 2.203125 -1 2.265625 -0.832031 2.265625 -0.625 C 2.265625 -0.425781 2.203125 -0.257812 2.078125 -0.125 C 1.953125 0 1.78125 0.0625 1.5625 0.0625 Z M 1.5625 0.0625 "/></g></g></g><g fill="#7e5e3f" fill-opacity="1"><g transform="translate(75.105602, 270.309676)"><g><path d="M 1.5625 0.0625 C 1.332031 0.0625 1.15625 0 1.03125 -0.125 C 0.90625 -0.25 0.84375 -0.414062 0.84375 -0.625 C 0.84375 -0.820312 0.90625 -0.984375 1.03125 -1.109375 C 1.15625 -1.242188 1.332031 -1.3125 1.5625 -1.3125 C 1.78125 -1.3125 1.953125 -1.25 2.078125 -1.125 C 2.203125 -1 2.265625 -0.832031 2.265625 -0.625 C 2.265625 -0.425781 2.203125 -0.257812 2.078125 -0.125 C 1.953125 0 1.78125 0.0625 1.5625 0.0625 Z M 1.5625 0.0625 "/></g></g></g><g fill="#7e5e3f" fill-opacity="1"><g transform="translate(78.220363, 270.309676)"><g><path d="M 4.359375 0.125 C 3.328125 0.125 2.539062 -0.132812 2 -0.65625 C 1.46875 -1.1875 1.203125 -1.96875 1.203125 -3 L 1.203125 -8.453125 L 2.203125 -8.453125 L 2.203125 -3.015625 C 2.203125 -2.273438 2.378906 -1.71875 2.734375 -1.34375 C 3.085938 -0.976562 3.628906 -0.796875 4.359375 -0.796875 C 5.796875 -0.796875 6.515625 -1.535156 6.515625 -3.015625 L 6.515625 -8.453125 L 7.515625 -8.453125 L 7.515625 -3 C 7.515625 -1.96875 7.25 -1.1875 6.71875 -0.65625 C 6.1875 -0.132812 5.398438 0.125 4.359375 0.125 Z M 4.359375 0.125 "/></g></g></g><g fill="#7e5e3f" fill-opacity="1"><g transform="translate(86.928973, 270.309676)"><g><path d="M 1.109375 0 L 1.109375 -6.375 L 2 -6.375 L 2 -5.375 L 2.125 -5.34375 C 2.34375 -5.71875 2.613281 -6.003906 2.9375 -6.203125 C 3.269531 -6.398438 3.671875 -6.5 4.140625 -6.5 C 4.910156 -6.5 5.46875 -6.300781 5.8125 -5.90625 C 6.15625 -5.519531 6.328125 -4.921875 6.328125 -4.109375 L 6.328125 0 L 5.390625 0 L 5.390625 -4.078125 C 5.390625 -4.460938 5.335938 -4.769531 5.234375 -5 C 5.140625 -5.238281 4.988281 -5.410156 4.78125 -5.515625 C 4.570312 -5.617188 4.300781 -5.671875 3.96875 -5.671875 C 3.394531 -5.671875 2.929688 -5.484375 2.578125 -5.109375 C 2.222656 -4.734375 2.046875 -4.117188 2.046875 -3.265625 L 2.046875 0 Z M 1.109375 0 "/></g></g></g><g fill="#7e5e3f" fill-opacity="1"><g transform="translate(94.26801, 270.309676)"><g><path d="M 3.65625 0.125 C 3.09375 0.125 2.585938 0 2.140625 -0.25 C 1.691406 -0.507812 1.335938 -0.890625 1.078125 -1.390625 C 0.828125 -1.890625 0.703125 -2.488281 0.703125 -3.1875 C 0.703125 -3.882812 0.828125 -4.484375 1.078125 -4.984375 C 1.335938 -5.484375 1.691406 -5.859375 2.140625 -6.109375 C 2.585938 -6.367188 3.09375 -6.5 3.65625 -6.5 C 4.332031 -6.5 4.867188 -6.367188 5.265625 -6.109375 C 5.671875 -5.859375 5.960938 -5.519531 6.140625 -5.09375 L 5.5 -4.640625 L 5.375 -4.640625 C 5.207031 -4.992188 4.984375 -5.25 4.703125 -5.40625 C 4.429688 -5.570312 4.082031 -5.65625 3.65625 -5.65625 C 3.269531 -5.65625 2.925781 -5.5625 2.625 -5.375 C 2.332031 -5.1875 2.101562 -4.90625 1.9375 -4.53125 C 1.769531 -4.164062 1.6875 -3.71875 1.6875 -3.1875 C 1.6875 -2.65625 1.769531 -2.203125 1.9375 -1.828125 C 2.101562 -1.460938 2.332031 -1.1875 2.625 -1 C 2.925781 -0.8125 3.269531 -0.71875 3.65625 -0.71875 C 4.101562 -0.71875 4.472656 -0.816406 4.765625 -1.015625 C 5.054688 -1.222656 5.285156 -1.539062 5.453125 -1.96875 L 5.5625 -1.96875 L 6.1875 -1.609375 C 6.019531 -1.066406 5.722656 -0.640625 5.296875 -0.328125 C 4.867188 -0.0234375 4.320312 0.125 3.65625 0.125 Z M 3.65625 0.125 "/></g></g></g><g fill="#7e5e3f" fill-opacity="1"><g transform="translate(100.838474, 270.309676)"><g><path d="M 3.65625 0.125 C 3.0625 0.125 2.539062 0 2.09375 -0.25 C 1.644531 -0.507812 1.300781 -0.882812 1.0625 -1.375 C 0.820312 -1.875 0.703125 -2.476562 0.703125 -3.1875 C 0.703125 -3.894531 0.820312 -4.492188 1.0625 -4.984375 C 1.300781 -5.484375 1.644531 -5.859375 2.09375 -6.109375 C 2.539062 -6.367188 3.0625 -6.5 3.65625 -6.5 C 4.257812 -6.5 4.785156 -6.367188 5.234375 -6.109375 C 5.679688 -5.859375 6.023438 -5.484375 6.265625 -4.984375 C 6.503906 -4.492188 6.625 -3.894531 6.625 -3.1875 C 6.625 -2.476562 6.503906 -1.875 6.265625 -1.375 C 6.023438 -0.882812 5.679688 -0.507812 5.234375 -0.25 C 4.785156 0 4.257812 0.125 3.65625 0.125 Z M 3.65625 -0.71875 C 4.289062 -0.71875 4.773438 -0.914062 5.109375 -1.3125 C 5.453125 -1.71875 5.625 -2.34375 5.625 -3.1875 C 5.625 -4.03125 5.453125 -4.648438 5.109375 -5.046875 C 4.773438 -5.453125 4.289062 -5.65625 3.65625 -5.65625 C 3.019531 -5.65625 2.53125 -5.453125 2.1875 -5.046875 C 1.851562 -4.648438 1.6875 -4.03125 1.6875 -3.1875 C 1.6875 -2.34375 1.851562 -1.71875 2.1875 -1.3125 C 2.53125 -0.914062 3.019531 -0.71875 3.65625 -0.71875 Z M 3.65625 -0.71875 "/></g></g></g><g fill="#7e5e3f" fill-opacity="1"><g transform="translate(108.154396, 270.309676)"><g><path d="M 4.03125 0 L 2.734375 0 L 0.3125 -6.375 L 1.328125 -6.375 L 3.34375 -1.078125 L 3.46875 -1.078125 L 5.453125 -6.375 L 6.453125 -6.375 Z M 4.03125 0 "/></g></g></g><g fill="#7e5e3f" fill-opacity="1"><g transform="translate(114.909782, 270.309676)"><g><path d="M 6.078125 -2.96875 L 1.6875 -2.96875 C 1.71875 -2.195312 1.90625 -1.628906 2.25 -1.265625 C 2.59375 -0.898438 3.066406 -0.71875 3.671875 -0.71875 C 4.128906 -0.71875 4.492188 -0.796875 4.765625 -0.953125 C 5.046875 -1.117188 5.265625 -1.378906 5.421875 -1.734375 L 5.546875 -1.734375 L 6.15625 -1.359375 C 5.96875 -0.898438 5.671875 -0.535156 5.265625 -0.265625 C 4.859375 -0.00390625 4.328125 0.125 3.671875 0.125 C 3.054688 0.125 2.523438 0.00390625 2.078125 -0.234375 C 1.640625 -0.484375 1.300781 -0.851562 1.0625 -1.34375 C 0.820312 -1.84375 0.703125 -2.457031 0.703125 -3.1875 C 0.703125 -3.914062 0.828125 -4.523438 1.078125 -5.015625 C 1.328125 -5.515625 1.671875 -5.882812 2.109375 -6.125 C 2.546875 -6.375 3.046875 -6.5 3.609375 -6.5 C 4.429688 -6.5 5.070312 -6.269531 5.53125 -5.8125 C 5.988281 -5.351562 6.21875 -4.671875 6.21875 -3.765625 C 6.21875 -3.410156 6.210938 -3.171875 6.203125 -3.046875 Z M 5.296875 -3.765625 C 5.273438 -4.441406 5.117188 -4.929688 4.828125 -5.234375 C 4.546875 -5.546875 4.140625 -5.703125 3.609375 -5.703125 C 3.054688 -5.703125 2.617188 -5.546875 2.296875 -5.234375 C 1.984375 -4.921875 1.789062 -4.429688 1.71875 -3.765625 Z M 5.296875 -3.765625 "/></g></g></g><g fill="#7e5e3f" fill-opacity="1"><g transform="translate(121.705614, 270.309676)"><g><path d="M 1.109375 0 L 1.109375 -6.375 L 2 -6.375 L 2 -5.375 L 2.125 -5.34375 C 2.425781 -6.070312 2.988281 -6.4375 3.8125 -6.4375 C 4.238281 -6.4375 4.5625 -6.359375 4.78125 -6.203125 L 4.546875 -5.40625 L 4.421875 -5.375 C 4.179688 -5.5 3.921875 -5.5625 3.640625 -5.5625 C 3.128906 -5.5625 2.734375 -5.367188 2.453125 -4.984375 C 2.179688 -4.597656 2.046875 -3.976562 2.046875 -3.125 L 2.046875 0 Z M 1.109375 0 "/></g></g></g><g fill="#7e5e3f" fill-opacity="1"><g transform="translate(126.629126, 270.309676)"><g/></g></g><g fill="#7e5e3f" fill-opacity="1"><g transform="translate(129.530068, 270.309676)"><g><path d="M 4.359375 0.125 C 3.328125 0.125 2.539062 -0.132812 2 -0.65625 C 1.46875 -1.1875 1.203125 -1.96875 1.203125 -3 L 1.203125 -8.453125 L 2.203125 -8.453125 L 2.203125 -3.015625 C 2.203125 -2.273438 2.378906 -1.71875 2.734375 -1.34375 C 3.085938 -0.976562 3.628906 -0.796875 4.359375 -0.796875 C 5.796875 -0.796875 6.515625 -1.535156 6.515625 -3.015625 L 6.515625 -8.453125 L 7.515625 -8.453125 L 7.515625 -3 C 7.515625 -1.96875 7.25 -1.1875 6.71875 -0.65625 C 6.1875 -0.132812 5.398438 0.125 4.359375 0.125 Z M 4.359375 0.125 "/></g></g></g><g fill="#7e5e3f" fill-opacity="1"><g transform="translate(138.238677, 270.309676)"><g><path d="M 1.109375 0 L 1.109375 -6.375 L 2 -6.375 L 2 -5.375 L 2.125 -5.34375 C 2.425781 -6.070312 2.988281 -6.4375 3.8125 -6.4375 C 4.238281 -6.4375 4.5625 -6.359375 4.78125 -6.203125 L 4.546875 -5.40625 L 4.421875 -5.375 C 4.179688 -5.5 3.921875 -5.5625 3.640625 -5.5625 C 3.128906 -5.5625 2.734375 -5.367188 2.453125 -4.984375 C 2.179688 -4.597656 2.046875 -3.976562 2.046875 -3.125 L 2.046875 0 Z M 1.109375 0 "/></g></g></g><g fill="#7e5e3f" fill-opacity="1"><g transform="translate(143.162188, 270.309676)"><g><path d="M 4.234375 0.125 C 3.765625 0.125 3.351562 0.0351562 3 -0.140625 C 2.65625 -0.328125 2.378906 -0.570312 2.171875 -0.875 L 2.046875 -0.859375 L 2.046875 0 L 1.109375 0 L 1.109375 -8.9375 L 2.046875 -8.9375 L 2.046875 -5.421875 L 2.171875 -5.40625 C 2.660156 -6.132812 3.367188 -6.5 4.296875 -6.5 C 4.816406 -6.5 5.269531 -6.375 5.65625 -6.125 C 6.050781 -5.882812 6.359375 -5.515625 6.578125 -5.015625 C 6.796875 -4.523438 6.90625 -3.914062 6.90625 -3.1875 C 6.90625 -2.457031 6.789062 -1.84375 6.5625 -1.34375 C 6.332031 -0.851562 6.015625 -0.484375 5.609375 -0.234375 C 5.210938 0.00390625 4.753906 0.125 4.234375 0.125 Z M 4.015625 -0.71875 C 5.285156 -0.71875 5.921875 -1.539062 5.921875 -3.1875 C 5.921875 -4.039062 5.753906 -4.664062 5.421875 -5.0625 C 5.085938 -5.457031 4.617188 -5.65625 4.015625 -5.65625 C 3.410156 -5.65625 2.929688 -5.453125 2.578125 -5.046875 C 2.222656 -4.640625 2.046875 -4.019531 2.046875 -3.1875 C 2.046875 -2.351562 2.222656 -1.734375 2.578125 -1.328125 C 2.929688 -0.921875 3.410156 -0.71875 4.015625 -0.71875 Z M 4.015625 -0.71875 "/></g></g></g><g fill="#7e5e3f" fill-opacity="1"><g transform="translate(150.767049, 270.309676)"><g><path d="M 2.625 0.125 C 2 0.125 1.507812 -0.0351562 1.15625 -0.359375 C 0.800781 -0.691406 0.625 -1.164062 0.625 -1.78125 C 0.625 -2.15625 0.703125 -2.472656 0.859375 -2.734375 C 1.015625 -2.992188 1.253906 -3.203125 1.578125 -3.359375 C 1.910156 -3.523438 2.34375 -3.65625 2.875 -3.75 C 3.332031 -3.820312 3.679688 -3.90625 3.921875 -4 C 4.171875 -4.101562 4.335938 -4.210938 4.421875 -4.328125 C 4.503906 -4.453125 4.546875 -4.601562 4.546875 -4.78125 C 4.546875 -5.070312 4.441406 -5.289062 4.234375 -5.4375 C 4.035156 -5.59375 3.71875 -5.671875 3.28125 -5.671875 C 2.875 -5.671875 2.519531 -5.59375 2.21875 -5.4375 C 1.925781 -5.28125 1.65625 -5.039062 1.40625 -4.71875 L 1.296875 -4.71875 L 0.828125 -5.375 C 1.097656 -5.71875 1.441406 -5.988281 1.859375 -6.1875 C 2.273438 -6.394531 2.75 -6.5 3.28125 -6.5 C 4.03125 -6.5 4.582031 -6.332031 4.9375 -6 C 5.300781 -5.675781 5.484375 -5.222656 5.484375 -4.640625 L 5.484375 -1.25 C 5.484375 -0.894531 5.632812 -0.71875 5.9375 -0.71875 C 6.03125 -0.71875 6.125 -0.738281 6.21875 -0.78125 L 6.296875 -0.75 L 6.40625 -0.09375 C 6.34375 -0.0507812 6.253906 -0.0195312 6.140625 0 C 6.023438 0.03125 5.90625 0.046875 5.78125 0.046875 C 5.4375 0.046875 5.171875 -0.03125 4.984375 -0.1875 C 4.804688 -0.34375 4.695312 -0.570312 4.65625 -0.875 L 4.53125 -0.875 C 4.34375 -0.539062 4.09375 -0.289062 3.78125 -0.125 C 3.476562 0.0390625 3.09375 0.125 2.625 0.125 Z M 2.84375 -0.625 C 3.195312 -0.625 3.503906 -0.707031 3.765625 -0.875 C 4.023438 -1.039062 4.222656 -1.269531 4.359375 -1.5625 C 4.492188 -1.863281 4.5625 -2.207031 4.5625 -2.59375 L 4.5625 -3.40625 L 4.453125 -3.421875 C 4.316406 -3.328125 4.144531 -3.242188 3.9375 -3.171875 C 3.726562 -3.109375 3.441406 -3.050781 3.078125 -3 C 2.710938 -2.945312 2.421875 -2.867188 2.203125 -2.765625 C 1.984375 -2.660156 1.828125 -2.523438 1.734375 -2.359375 C 1.640625 -2.203125 1.59375 -2.007812 1.59375 -1.78125 C 1.59375 -1.40625 1.703125 -1.117188 1.921875 -0.921875 C 2.140625 -0.722656 2.445312 -0.625 2.84375 -0.625 Z M 2.84375 -0.625 "/></g></g></g><g fill="#7e5e3f" fill-opacity="1"><g transform="translate(157.360629, 270.309676)"><g><path d="M 1.109375 0 L 1.109375 -6.375 L 2 -6.375 L 2 -5.375 L 2.125 -5.34375 C 2.34375 -5.71875 2.613281 -6.003906 2.9375 -6.203125 C 3.269531 -6.398438 3.671875 -6.5 4.140625 -6.5 C 4.910156 -6.5 5.46875 -6.300781 5.8125 -5.90625 C 6.15625 -5.519531 6.328125 -4.921875 6.328125 -4.109375 L 6.328125 0 L 5.390625 0 L 5.390625 -4.078125 C 5.390625 -4.460938 5.335938 -4.769531 5.234375 -5 C 5.140625 -5.238281 4.988281 -5.410156 4.78125 -5.515625 C 4.570312 -5.617188 4.300781 -5.671875 3.96875 -5.671875 C 3.394531 -5.671875 2.929688 -5.484375 2.578125 -5.109375 C 2.222656 -4.734375 2.046875 -4.117188 2.046875 -3.265625 L 2.046875 0 Z M 1.109375 0 "/></g></g></g><g fill="#7e5e3f" fill-opacity="1"><g transform="translate(164.699665, 270.309676)"><g/></g></g><g fill="#7e5e3f" fill-opacity="1"><g transform="translate(167.600608, 270.309676)"><g><path d="M 4.453125 0.125 C 3.742188 0.125 3.117188 -0.0351562 2.578125 -0.359375 C 2.035156 -0.679688 1.609375 -1.171875 1.296875 -1.828125 C 0.992188 -2.484375 0.84375 -3.285156 0.84375 -4.234375 C 0.84375 -5.179688 1.003906 -5.976562 1.328125 -6.625 C 1.660156 -7.28125 2.113281 -7.769531 2.6875 -8.09375 C 3.269531 -8.414062 3.9375 -8.578125 4.6875 -8.578125 C 5.5 -8.578125 6.164062 -8.429688 6.6875 -8.140625 C 7.207031 -7.847656 7.578125 -7.410156 7.796875 -6.828125 L 7.140625 -6.453125 L 7 -6.453125 C 6.78125 -6.890625 6.484375 -7.203125 6.109375 -7.390625 C 5.734375 -7.585938 5.257812 -7.6875 4.6875 -7.6875 C 2.832031 -7.6875 1.90625 -6.535156 1.90625 -4.234375 C 1.90625 -3.023438 2.140625 -2.144531 2.609375 -1.59375 C 3.078125 -1.050781 3.726562 -0.78125 4.5625 -0.78125 C 5.332031 -0.78125 5.910156 -0.953125 6.296875 -1.296875 C 6.679688 -1.648438 6.875 -2.207031 6.875 -2.96875 L 6.875 -3.703125 L 4.46875 -3.703125 L 4.46875 -4.5 L 7.84375 -4.5 L 7.84375 0 L 6.921875 0 L 6.921875 -1.140625 L 6.796875 -1.15625 C 6.578125 -0.726562 6.265625 -0.40625 5.859375 -0.1875 C 5.460938 0.0195312 4.992188 0.125 4.453125 0.125 Z M 4.453125 0.125 "/></g></g></g><g fill="#7e5e3f" fill-opacity="1"><g transform="translate(176.384337, 270.309676)"><g><path d="M 6.078125 -2.96875 L 1.6875 -2.96875 C 1.71875 -2.195312 1.90625 -1.628906 2.25 -1.265625 C 2.59375 -0.898438 3.066406 -0.71875 3.671875 -0.71875 C 4.128906 -0.71875 4.492188 -0.796875 4.765625 -0.953125 C 5.046875 -1.117188 5.265625 -1.378906 5.421875 -1.734375 L 5.546875 -1.734375 L 6.15625 -1.359375 C 5.96875 -0.898438 5.671875 -0.535156 5.265625 -0.265625 C 4.859375 -0.00390625 4.328125 0.125 3.671875 0.125 C 3.054688 0.125 2.523438 0.00390625 2.078125 -0.234375 C 1.640625 -0.484375 1.300781 -0.851562 1.0625 -1.34375 C 0.820312 -1.84375 0.703125 -2.457031 0.703125 -3.1875 C 0.703125 -3.914062 0.828125 -4.523438 1.078125 -5.015625 C 1.328125 -5.515625 1.671875 -5.882812 2.109375 -6.125 C 2.546875 -6.375 3.046875 -6.5 3.609375 -6.5 C 4.429688 -6.5 5.070312 -6.269531 5.53125 -5.8125 C 5.988281 -5.351562 6.21875 -4.671875 6.21875 -3.765625 C 6.21875 -3.410156 6.210938 -3.171875 6.203125 -3.046875 Z M 5.296875 -3.765625 C 5.273438 -4.441406 5.117188 -4.929688 4.828125 -5.234375 C 4.546875 -5.546875 4.140625 -5.703125 3.609375 -5.703125 C 3.054688 -5.703125 2.617188 -5.546875 2.296875 -5.234375 C 1.984375 -4.921875 1.789062 -4.429688 1.71875 -3.765625 Z M 5.296875 -3.765625 "/></g></g></g><g fill="#7e5e3f" fill-opacity="1"><g transform="translate(183.180169, 270.309676)"><g><path d="M 1.109375 0 L 1.109375 -6.375 L 2 -6.375 L 2 -5.4375 L 2.125 -5.40625 C 2.34375 -5.769531 2.601562 -6.039062 2.90625 -6.21875 C 3.21875 -6.40625 3.585938 -6.5 4.015625 -6.5 C 4.503906 -6.5 4.882812 -6.40625 5.15625 -6.21875 C 5.425781 -6.03125 5.632812 -5.726562 5.78125 -5.3125 L 5.90625 -5.3125 C 6.125 -5.707031 6.394531 -6.003906 6.71875 -6.203125 C 7.039062 -6.398438 7.4375 -6.5 7.90625 -6.5 C 8.5625 -6.5 9.050781 -6.320312 9.375 -5.96875 C 9.695312 -5.613281 9.859375 -5.070312 9.859375 -4.34375 L 9.859375 0 L 8.921875 0 L 8.921875 -4.328125 C 8.921875 -4.785156 8.820312 -5.125 8.625 -5.34375 C 8.425781 -5.5625 8.113281 -5.671875 7.6875 -5.671875 C 7.175781 -5.671875 6.757812 -5.484375 6.4375 -5.109375 C 6.113281 -4.742188 5.953125 -4.140625 5.953125 -3.296875 L 5.953125 0 L 5.015625 0 L 5.015625 -4.328125 C 5.015625 -4.785156 4.914062 -5.125 4.71875 -5.34375 C 4.53125 -5.5625 4.21875 -5.671875 3.78125 -5.671875 C 3.269531 -5.671875 2.851562 -5.492188 2.53125 -5.140625 C 2.207031 -4.785156 2.046875 -4.203125 2.046875 -3.390625 L 2.046875 0 Z M 1.109375 0 "/></g></g></g><g fill="#7e5e3f" fill-opacity="1"><g transform="translate(194.044255, 270.309676)"><g><path d="M 2.90625 0.125 C 2.507812 0.125 2.140625 0.0703125 1.796875 -0.03125 C 1.453125 -0.144531 1.160156 -0.289062 0.921875 -0.46875 C 0.691406 -0.65625 0.53125 -0.863281 0.4375 -1.09375 L 0.984375 -1.671875 L 1.109375 -1.671875 C 1.316406 -1.359375 1.566406 -1.117188 1.859375 -0.953125 C 2.148438 -0.796875 2.5 -0.71875 2.90625 -0.71875 C 3.375 -0.71875 3.726562 -0.804688 3.96875 -0.984375 C 4.21875 -1.171875 4.34375 -1.429688 4.34375 -1.765625 C 4.34375 -2.015625 4.269531 -2.21875 4.125 -2.375 C 3.976562 -2.539062 3.738281 -2.664062 3.40625 -2.75 L 2.328125 -3.015625 C 1.753906 -3.160156 1.332031 -3.378906 1.0625 -3.671875 C 0.800781 -3.972656 0.671875 -4.347656 0.671875 -4.796875 C 0.671875 -5.140625 0.757812 -5.4375 0.9375 -5.6875 C 1.113281 -5.945312 1.367188 -6.144531 1.703125 -6.28125 C 2.035156 -6.425781 2.429688 -6.5 2.890625 -6.5 C 3.484375 -6.5 3.945312 -6.414062 4.28125 -6.25 C 4.613281 -6.09375 4.878906 -5.863281 5.078125 -5.5625 L 4.546875 -5.046875 L 4.421875 -5.046875 C 4.222656 -5.285156 4 -5.457031 3.75 -5.5625 C 3.507812 -5.664062 3.222656 -5.71875 2.890625 -5.71875 C 2.472656 -5.71875 2.148438 -5.640625 1.921875 -5.484375 C 1.703125 -5.335938 1.59375 -5.117188 1.59375 -4.828125 C 1.59375 -4.578125 1.671875 -4.367188 1.828125 -4.203125 C 1.992188 -4.046875 2.269531 -3.921875 2.65625 -3.828125 L 3.71875 -3.578125 C 4.269531 -3.441406 4.671875 -3.222656 4.921875 -2.921875 C 5.171875 -2.617188 5.296875 -2.238281 5.296875 -1.78125 C 5.296875 -1.40625 5.207031 -1.070312 5.03125 -0.78125 C 4.851562 -0.5 4.582031 -0.273438 4.21875 -0.109375 C 3.863281 0.046875 3.425781 0.125 2.90625 0.125 Z M 2.90625 0.125 "/></g></g></g><g fill="#7e5e3f" fill-opacity="1"><g transform="translate(199.9386, 270.309676)"><g/></g></g><g fill="#7e5e3f" fill-opacity="1"><g transform="translate(202.839542, 270.309676)"><g><path d="M 3.15625 0 L 1.96875 0 L 0.40625 -6.375 L 1.34375 -6.375 L 2.546875 -1.09375 L 2.671875 -1.09375 L 4.15625 -6.375 L 5.140625 -6.375 L 6.671875 -1.09375 L 6.796875 -1.09375 L 7.984375 -6.375 L 8.890625 -6.375 L 7.34375 0 L 6.140625 0 L 4.6875 -4.953125 L 4.5625 -4.953125 Z M 3.15625 0 "/></g></g></g><g fill="#7e5e3f" fill-opacity="1"><g transform="translate(212.131811, 270.309676)"><g><path d="M 1.578125 -7.609375 C 1.378906 -7.609375 1.21875 -7.671875 1.09375 -7.796875 C 0.96875 -7.921875 0.90625 -8.082031 0.90625 -8.28125 C 0.90625 -8.46875 0.96875 -8.625 1.09375 -8.75 C 1.21875 -8.875 1.378906 -8.9375 1.578125 -8.9375 C 1.785156 -8.9375 1.953125 -8.875 2.078125 -8.75 C 2.203125 -8.625 2.265625 -8.46875 2.265625 -8.28125 C 2.265625 -8.082031 2.203125 -7.921875 2.078125 -7.796875 C 1.953125 -7.671875 1.785156 -7.609375 1.578125 -7.609375 Z M 1.109375 0 L 1.109375 -6.375 L 2.046875 -6.375 L 2.046875 0 Z M 1.109375 0 "/></g></g></g><g fill="#7e5e3f" fill-opacity="1"><g transform="translate(215.292802, 270.309676)"><g><path d="M 4.3125 -1.015625 L 4.609375 -0.328125 C 4.460938 -0.179688 4.265625 -0.0703125 4.015625 0 C 3.773438 0.0820312 3.515625 0.125 3.234375 0.125 C 2.015625 0.125 1.40625 -0.492188 1.40625 -1.734375 L 1.40625 -5.609375 L 0.296875 -5.609375 L 0.296875 -6.390625 L 1.40625 -6.390625 L 1.40625 -7.734375 L 2.34375 -7.890625 L 2.34375 -6.390625 L 4.390625 -6.390625 L 4.390625 -5.609375 L 2.34375 -5.609375 L 2.34375 -1.828125 C 2.34375 -1.085938 2.660156 -0.71875 3.296875 -0.71875 C 3.640625 -0.71875 3.9375 -0.816406 4.1875 -1.015625 Z M 4.3125 -1.015625 "/></g></g></g><g fill="#7e5e3f" fill-opacity="1"><g transform="translate(220.146968, 270.309676)"><g><path d="M 1.109375 0 L 1.109375 -8.9375 L 2.046875 -8.9375 L 2.046875 -5.46875 L 2.171875 -5.453125 C 2.628906 -6.148438 3.285156 -6.5 4.140625 -6.5 C 4.910156 -6.5 5.46875 -6.300781 5.8125 -5.90625 C 6.15625 -5.519531 6.328125 -4.921875 6.328125 -4.109375 L 6.328125 0 L 5.390625 0 L 5.390625 -4.078125 C 5.390625 -4.460938 5.335938 -4.769531 5.234375 -5 C 5.140625 -5.238281 4.988281 -5.410156 4.78125 -5.515625 C 4.570312 -5.617188 4.300781 -5.671875 3.96875 -5.671875 C 3.394531 -5.671875 2.929688 -5.484375 2.578125 -5.109375 C 2.222656 -4.742188 2.046875 -4.128906 2.046875 -3.265625 L 2.046875 0 Z M 1.109375 0 "/></g></g></g><g fill="#7e5e3f" fill-opacity="1"><g transform="translate(227.486014, 270.309676)"><g/></g></g><g fill="#7e5e3f" fill-opacity="1"><g transform="translate(230.386964, 270.309676)"><g><path d="M 4.359375 0.125 C 3.328125 0.125 2.539062 -0.132812 2 -0.65625 C 1.46875 -1.1875 1.203125 -1.96875 1.203125 -3 L 1.203125 -8.453125 L 2.203125 -8.453125 L 2.203125 -3.015625 C 2.203125 -2.273438 2.378906 -1.71875 2.734375 -1.34375 C 3.085938 -0.976562 3.628906 -0.796875 4.359375 -0.796875 C 5.796875 -0.796875 6.515625 -1.535156 6.515625 -3.015625 L 6.515625 -8.453125 L 7.515625 -8.453125 L 7.515625 -3 C 7.515625 -1.96875 7.25 -1.1875 6.71875 -0.65625 C 6.1875 -0.132812 5.398438 0.125 4.359375 0.125 Z M 4.359375 0.125 "/></g></g></g><g fill="#7e5e3f" fill-opacity="1"><g transform="translate(239.095574, 270.309676)"><g><path d="M 1.109375 0 L 1.109375 -6.375 L 2 -6.375 L 2 -5.375 L 2.125 -5.34375 C 2.425781 -6.070312 2.988281 -6.4375 3.8125 -6.4375 C 4.238281 -6.4375 4.5625 -6.359375 4.78125 -6.203125 L 4.546875 -5.40625 L 4.421875 -5.375 C 4.179688 -5.5 3.921875 -5.5625 3.640625 -5.5625 C 3.128906 -5.5625 2.734375 -5.367188 2.453125 -4.984375 C 2.179688 -4.597656 2.046875 -3.976562 2.046875 -3.125 L 2.046875 0 Z M 1.109375 0 "/></g></g></g><g fill="#7e5e3f" fill-opacity="1"><g transform="translate(244.019085, 270.309676)"><g><path d="M 4.234375 0.125 C 3.765625 0.125 3.351562 0.0351562 3 -0.140625 C 2.65625 -0.328125 2.378906 -0.570312 2.171875 -0.875 L 2.046875 -0.859375 L 2.046875 0 L 1.109375 0 L 1.109375 -8.9375 L 2.046875 -8.9375 L 2.046875 -5.421875 L 2.171875 -5.40625 C 2.660156 -6.132812 3.367188 -6.5 4.296875 -6.5 C 4.816406 -6.5 5.269531 -6.375 5.65625 -6.125 C 6.050781 -5.882812 6.359375 -5.515625 6.578125 -5.015625 C 6.796875 -4.523438 6.90625 -3.914062 6.90625 -3.1875 C 6.90625 -2.457031 6.789062 -1.84375 6.5625 -1.34375 C 6.332031 -0.851562 6.015625 -0.484375 5.609375 -0.234375 C 5.210938 0.00390625 4.753906 0.125 4.234375 0.125 Z M 4.015625 -0.71875 C 5.285156 -0.71875 5.921875 -1.539062 5.921875 -3.1875 C 5.921875 -4.039062 5.753906 -4.664062 5.421875 -5.0625 C 5.085938 -5.457031 4.617188 -5.65625 4.015625 -5.65625 C 3.410156 -5.65625 2.929688 -5.453125 2.578125 -5.046875 C 2.222656 -4.640625 2.046875 -4.019531 2.046875 -3.1875 C 2.046875 -2.351562 2.222656 -1.734375 2.578125 -1.328125 C 2.929688 -0.921875 3.410156 -0.71875 4.015625 -0.71875 Z M 4.015625 -0.71875 "/></g></g></g><g fill="#7e5e3f" fill-opacity="1"><g transform="translate(251.623945, 270.309676)"><g><path d="M 2.625 0.125 C 2 0.125 1.507812 -0.0351562 1.15625 -0.359375 C 0.800781 -0.691406 0.625 -1.164062 0.625 -1.78125 C 0.625 -2.15625 0.703125 -2.472656 0.859375 -2.734375 C 1.015625 -2.992188 1.253906 -3.203125 1.578125 -3.359375 C 1.910156 -3.523438 2.34375 -3.65625 2.875 -3.75 C 3.332031 -3.820312 3.679688 -3.90625 3.921875 -4 C 4.171875 -4.101562 4.335938 -4.210938 4.421875 -4.328125 C 4.503906 -4.453125 4.546875 -4.601562 4.546875 -4.78125 C 4.546875 -5.070312 4.441406 -5.289062 4.234375 -5.4375 C 4.035156 -5.59375 3.71875 -5.671875 3.28125 -5.671875 C 2.875 -5.671875 2.519531 -5.59375 2.21875 -5.4375 C 1.925781 -5.28125 1.65625 -5.039062 1.40625 -4.71875 L 1.296875 -4.71875 L 0.828125 -5.375 C 1.097656 -5.71875 1.441406 -5.988281 1.859375 -6.1875 C 2.273438 -6.394531 2.75 -6.5 3.28125 -6.5 C 4.03125 -6.5 4.582031 -6.332031 4.9375 -6 C 5.300781 -5.675781 5.484375 -5.222656 5.484375 -4.640625 L 5.484375 -1.25 C 5.484375 -0.894531 5.632812 -0.71875 5.9375 -0.71875 C 6.03125 -0.71875 6.125 -0.738281 6.21875 -0.78125 L 6.296875 -0.75 L 6.40625 -0.09375 C 6.34375 -0.0507812 6.253906 -0.0195312 6.140625 0 C 6.023438 0.03125 5.90625 0.046875 5.78125 0.046875 C 5.4375 0.046875 5.171875 -0.03125 4.984375 -0.1875 C 4.804688 -0.34375 4.695312 -0.570312 4.65625 -0.875 L 4.53125 -0.875 C 4.34375 -0.539062 4.09375 -0.289062 3.78125 -0.125 C 3.476562 0.0390625 3.09375 0.125 2.625 0.125 Z M 2.84375 -0.625 C 3.195312 -0.625 3.503906 -0.707031 3.765625 -0.875 C 4.023438 -1.039062 4.222656 -1.269531 4.359375 -1.5625 C 4.492188 -1.863281 4.5625 -2.207031 4.5625 -2.59375 L 4.5625 -3.40625 L 4.453125 -3.421875 C 4.316406 -3.328125 4.144531 -3.242188 3.9375 -3.171875 C 3.726562 -3.109375 3.441406 -3.050781 3.078125 -3 C 2.710938 -2.945312 2.421875 -2.867188 2.203125 -2.765625 C 1.984375 -2.660156 1.828125 -2.523438 1.734375 -2.359375 C 1.640625 -2.203125 1.59375 -2.007812 1.59375 -1.78125 C 1.59375 -1.40625 1.703125 -1.117188 1.921875 -0.921875 C 2.140625 -0.722656 2.445312 -0.625 2.84375 -0.625 Z M 2.84375 -0.625 "/></g></g></g><g fill="#7e5e3f" fill-opacity="1"><g transform="translate(258.217517, 270.309676)"><g><path d="M 1.109375 0 L 1.109375 -6.375 L 2 -6.375 L 2 -5.375 L 2.125 -5.34375 C 2.34375 -5.71875 2.613281 -6.003906 2.9375 -6.203125 C 3.269531 -6.398438 3.671875 -6.5 4.140625 -6.5 C 4.910156 -6.5 5.46875 -6.300781 5.8125 -5.90625 C 6.15625 -5.519531 6.328125 -4.921875 6.328125 -4.109375 L 6.328125 0 L 5.390625 0 L 5.390625 -4.078125 C 5.390625 -4.460938 5.335938 -4.769531 5.234375 -5 C 5.140625 -5.238281 4.988281 -5.410156 4.78125 -5.515625 C 4.570312 -5.617188 4.300781 -5.671875 3.96875 -5.671875 C 3.394531 -5.671875 2.929688 -5.484375 2.578125 -5.109375 C 2.222656 -4.734375 2.046875 -4.117188 2.046875 -3.265625 L 2.046875 0 Z M 1.109375 0 "/></g></g></g><g fill="#7e5e3f" fill-opacity="1"><g transform="translate(265.556562, 270.309676)"><g/></g></g><g fill="#7e5e3f" fill-opacity="1"><g transform="translate(268.457513, 270.309676)"><g><path d="M 6.59375 -8.453125 L 6.59375 -7.609375 L 3.953125 -7.609375 L 3.953125 0 L 2.96875 0 L 2.96875 -7.609375 L 0.3125 -7.609375 L 0.3125 -8.453125 Z M 6.59375 -8.453125 "/></g></g></g><g fill="#7e5e3f" fill-opacity="1"><g transform="translate(275.357355, 270.309676)"><g><path d="M 1.109375 0 L 1.109375 -6.375 L 2 -6.375 L 2 -5.375 L 2.125 -5.34375 C 2.425781 -6.070312 2.988281 -6.4375 3.8125 -6.4375 C 4.238281 -6.4375 4.5625 -6.359375 4.78125 -6.203125 L 4.546875 -5.40625 L 4.421875 -5.375 C 4.179688 -5.5 3.921875 -5.5625 3.640625 -5.5625 C 3.128906 -5.5625 2.734375 -5.367188 2.453125 -4.984375 C 2.179688 -4.597656 2.046875 -3.976562 2.046875 -3.125 L 2.046875 0 Z M 1.109375 0 "/></g></g></g><g fill="#7e5e3f" fill-opacity="1"><g transform="translate(280.280866, 270.309676)"><g><path d="M 3.65625 0.125 C 3.0625 0.125 2.539062 0 2.09375 -0.25 C 1.644531 -0.507812 1.300781 -0.882812 1.0625 -1.375 C 0.820312 -1.875 0.703125 -2.476562 0.703125 -3.1875 C 0.703125 -3.894531 0.820312 -4.492188 1.0625 -4.984375 C 1.300781 -5.484375 1.644531 -5.859375 2.09375 -6.109375 C 2.539062 -6.367188 3.0625 -6.5 3.65625 -6.5 C 4.257812 -6.5 4.785156 -6.367188 5.234375 -6.109375 C 5.679688 -5.859375 6.023438 -5.484375 6.265625 -4.984375 C 6.503906 -4.492188 6.625 -3.894531 6.625 -3.1875 C 6.625 -2.476562 6.503906 -1.875 6.265625 -1.375 C 6.023438 -0.882812 5.679688 -0.507812 5.234375 -0.25 C 4.785156 0 4.257812 0.125 3.65625 0.125 Z M 3.65625 -0.71875 C 4.289062 -0.71875 4.773438 -0.914062 5.109375 -1.3125 C 5.453125 -1.71875 5.625 -2.34375 5.625 -3.1875 C 5.625 -4.03125 5.453125 -4.648438 5.109375 -5.046875 C 4.773438 -5.453125 4.289062 -5.65625 3.65625 -5.65625 C 3.019531 -5.65625 2.53125 -5.453125 2.1875 -5.046875 C 1.851562 -4.648438 1.6875 -4.03125 1.6875 -3.1875 C 1.6875 -2.34375 1.851562 -1.71875 2.1875 -1.3125 C 2.53125 -0.914062 3.019531 -0.71875 3.65625 -0.71875 Z M 3.65625 -0.71875 "/></g></g></g><g fill="#7e5e3f" fill-opacity="1"><g transform="translate(287.596796, 270.309676)"><g><path d="M 4.03125 0 L 2.734375 0 L 0.3125 -6.375 L 1.328125 -6.375 L 3.34375 -1.078125 L 3.46875 -1.078125 L 5.453125 -6.375 L 6.453125 -6.375 Z M 4.03125 0 "/></g></g></g><g fill="#7e5e3f" fill-opacity="1"><g transform="translate(294.35219, 270.309676)"><g><path d="M 6.078125 -2.96875 L 1.6875 -2.96875 C 1.71875 -2.195312 1.90625 -1.628906 2.25 -1.265625 C 2.59375 -0.898438 3.066406 -0.71875 3.671875 -0.71875 C 4.128906 -0.71875 4.492188 -0.796875 4.765625 -0.953125 C 5.046875 -1.117188 5.265625 -1.378906 5.421875 -1.734375 L 5.546875 -1.734375 L 6.15625 -1.359375 C 5.96875 -0.898438 5.671875 -0.535156 5.265625 -0.265625 C 4.859375 -0.00390625 4.328125 0.125 3.671875 0.125 C 3.054688 0.125 2.523438 0.00390625 2.078125 -0.234375 C 1.640625 -0.484375 1.300781 -0.851562 1.0625 -1.34375 C 0.820312 -1.84375 0.703125 -2.457031 0.703125 -3.1875 C 0.703125 -3.914062 0.828125 -4.523438 1.078125 -5.015625 C 1.328125 -5.515625 1.671875 -5.882812 2.109375 -6.125 C 2.546875 -6.375 3.046875 -6.5 3.609375 -6.5 C 4.429688 -6.5 5.070312 -6.269531 5.53125 -5.8125 C 5.988281 -5.351562 6.21875 -4.671875 6.21875 -3.765625 C 6.21875 -3.410156 6.210938 -3.171875 6.203125 -3.046875 Z M 5.296875 -3.765625 C 5.273438 -4.441406 5.117188 -4.929688 4.828125 -5.234375 C 4.546875 -5.546875 4.140625 -5.703125 3.609375 -5.703125 C 3.054688 -5.703125 2.617188 -5.546875 2.296875 -5.234375 C 1.984375 -4.921875 1.789062 -4.429688 1.71875 -3.765625 Z M 5.296875 -3.765625 "/></g></g></g><g fill="#7e5e3f" fill-opacity="1"><g transform="translate(301.148023, 270.309676)"><g><path d="M 1.5625 0.0625 C 1.332031 0.0625 1.15625 0 1.03125 -0.125 C 0.90625 -0.25 0.84375 -0.414062 0.84375 -0.625 C 0.84375 -0.820312 0.90625 -0.984375 1.03125 -1.109375 C 1.15625 -1.242188 1.332031 -1.3125 1.5625 -1.3125 C 1.78125 -1.3125 1.953125 -1.25 2.078125 -1.125 C 2.203125 -1 2.265625 -0.832031 2.265625 -0.625 C 2.265625 -0.425781 2.203125 -0.257812 2.078125 -0.125 C 1.953125 0 1.78125 0.0625 1.5625 0.0625 Z M 1.5625 0.0625 "/></g></g></g><g fill="#7e5e3f" fill-opacity="1"><g transform="translate(304.262784, 270.309676)"><g><path d="M 1.5625 0.0625 C 1.332031 0.0625 1.15625 0 1.03125 -0.125 C 0.90625 -0.25 0.84375 -0.414062 0.84375 -0.625 C 0.84375 -0.820312 0.90625 -0.984375 1.03125 -1.109375 C 1.15625 -1.242188 1.332031 -1.3125 1.5625 -1.3125 C 1.78125 -1.3125 1.953125 -1.25 2.078125 -1.125 C 2.203125 -1 2.265625 -0.832031 2.265625 -0.625 C 2.265625 -0.425781 2.203125 -0.257812 2.078125 -0.125 C 1.953125 0 1.78125 0.0625 1.5625 0.0625 Z M 1.5625 0.0625 "/></g></g></g><g fill="#7e5e3f" fill-opacity="1"><g transform="translate(307.377545, 270.309676)"><g><path d="M 1.5625 0.0625 C 1.332031 0.0625 1.15625 0 1.03125 -0.125 C 0.90625 -0.25 0.84375 -0.414062 0.84375 -0.625 C 0.84375 -0.820312 0.90625 -0.984375 1.03125 -1.109375 C 1.15625 -1.242188 1.332031 -1.3125 1.5625 -1.3125 C 1.78125 -1.3125 1.953125 -1.25 2.078125 -1.125 C 2.203125 -1 2.265625 -0.832031 2.265625 -0.625 C 2.265625 -0.425781 2.203125 -0.257812 2.078125 -0.125 C 1.953125 0 1.78125 0.0625 1.5625 0.0625 Z M 1.5625 0.0625 "/></g></g></g></svg>